<svg aria-hidden="true" style="position: absolute; width: 0; height: 0; overflow: hidden;" version="1.1" xmlns="http://www.w3.org/2000/svg" xmlns:xlink="http://www.w3.org/1999/xlink">
    <defs>
        <symbol id="icon-undr-ground" viewBox="0 0 32 32">
            <path fill="#fff" style="fill: var(--color3, #fff)" d="M9.643 8.587c-0.48-1.625-1.782-1.447-2.672-0.69-2.193 2.026-5.048 6.278-3.221 12.4 1.53 5.187 7.899 8.504 7.899 8.504h-7.424c0 0-3.833-4.296-4.176-9.35-0.434-6.389 2.125-10.418 5.094-13.045 2.787-2.471 5.437-3.206 5.437-3.206l5.421 17.76 5.42-17.76c0 0 2.65 0.735 5.437 3.206 2.97 2.627 5.528 6.656 5.094 13.045-0.343 5.053-4.176 9.35-4.176 9.35h-7.424c0 0 6.368-3.317 7.899-8.504 1.828-6.122-1.028-10.374-3.221-12.4-0.891-0.757-2.193-0.935-2.672 0.69-1.645 5.187-6.357 20.048-6.357 20.048s-4.712-14.866-6.357-20.048h-0.001z"></path>
        </symbol>
        <symbol id="icon-location" viewBox="0 0 32 32">
            <path fill="#fff" style="fill: var(--color3, #fff)" d="M16 0.444c-3.24 0.004-6.347 1.293-8.638 3.584s-3.58 5.398-3.584 8.638c-0.004 2.648 0.861 5.224 2.462 7.333 0 0 0.333 0.439 0.388 0.502l9.372 11.053 9.377-11.059c0.049-0.059 0.383-0.497 0.383-0.497l0.001-0.003c1.6-2.108 2.465-4.683 2.461-7.33-0.004-3.24-1.293-6.347-3.584-8.638s-5.398-3.58-8.638-3.584zM16 17.111c-0.879 0-1.738-0.261-2.469-0.749s-1.301-1.183-1.637-1.995c-0.336-0.812-0.424-1.706-0.253-2.568s0.595-1.654 1.216-2.276c0.622-0.622 1.413-1.045 2.276-1.216s1.756-0.084 2.568 0.253c0.812 0.336 1.506 0.906 1.995 1.637s0.749 1.59 0.749 2.469c-0.001 1.178-0.47 2.308-1.303 3.141s-1.963 1.302-3.141 1.303z"></path>
        </symbol>
        <symbol id="icon-shadle" viewBox="0 0 32 32">
            <path fill="#fff" style="fill: var(--color1, #fff)" d="M8 1c0-0.265-0.105-0.52-0.293-0.707s-0.442-0.293-0.707-0.293c-0.265 0-0.52 0.105-0.707 0.293s-0.293 0.442-0.293 0.707v1h-2c-1.061 0-2.078 0.421-2.828 1.172s-1.172 1.768-1.172 2.828v2h32v-2c0-1.061-0.421-2.078-1.172-2.828s-1.768-1.172-2.828-1.172h-2v-1c0-0.265-0.105-0.52-0.293-0.707s-0.442-0.293-0.707-0.293-0.52 0.105-0.707 0.293c-0.188 0.188-0.293 0.442-0.293 0.707v1h-16v-1zM32 28v-18h-32v18c0 1.061 0.421 2.078 1.172 2.828s1.768 1.172 2.828 1.172h24c1.061 0 2.078-0.421 2.828-1.172s1.172-1.768 1.172-2.828zM19 14h2c0.265 0 0.52 0.105 0.707 0.293s0.293 0.442 0.293 0.707v2c0 0.265-0.105 0.52-0.293 0.707s-0.442 0.293-0.707 0.293h-2c-0.265 0-0.52-0.105-0.707-0.293s-0.293-0.442-0.293-0.707v-2c0-0.265 0.105-0.52 0.293-0.707s0.442-0.293 0.707-0.293zM25 14h2c0.265 0 0.52 0.105 0.707 0.293s0.293 0.442 0.293 0.707v2c0 0.265-0.105 0.52-0.293 0.707s-0.442 0.293-0.707 0.293h-2c-0.265 0-0.52-0.105-0.707-0.293s-0.293-0.442-0.293-0.707v-2c0-0.265 0.105-0.52 0.293-0.707s0.442-0.293 0.707-0.293zM4 21c0-0.265 0.105-0.52 0.293-0.707s0.442-0.293 0.707-0.293h2c0.265 0 0.52 0.105 0.707 0.293s0.293 0.442 0.293 0.707v2c0 0.265-0.105 0.52-0.293 0.707s-0.442 0.293-0.707 0.293h-2c-0.265 0-0.52-0.105-0.707-0.293s-0.293-0.442-0.293-0.707v-2zM11 20h2c0.265 0 0.52 0.105 0.707 0.293s0.293 0.442 0.293 0.707v2c0 0.265-0.105 0.52-0.293 0.707s-0.442 0.293-0.707 0.293h-2c-0.265 0-0.52-0.105-0.707-0.293s-0.293-0.442-0.293-0.707v-2c0-0.265 0.105-0.52 0.293-0.707s0.442-0.293 0.707-0.293z"></path>
        </symbol>
        <symbol id="icon-logo" viewBox="0 0 32 32">
            <path fill=""  d="M14.496 31.968c-0.010-0.016-0.198-0.034-0.418-0.039s-0.609-0.044-0.865-0.087c-2.242-0.374-4.509-1.187-6.019-2.16-0.279-0.18-0.343-0.249-0.297-0.323 0.033-0.054 0.144-0.026 0.79 0.195 0.309 0.106 0.789 0.242 1.066 0.302 0.469 0.102 0.565 0.109 1.377 0.109 1.218 0 1.635-0.069 2.962-0.49 2.527-0.801 3.159-0.805 5.67-0.032 1.442 0.444 2.009 0.542 3.131 0.542 0.817-0 1.584-0.144 2.507-0.47 0.245-0.087 0.492-0.166 0.548-0.177 0.11-0.021 0.163 0.026 0.13 0.113-0.051 0.133-1.34 0.853-2.132 1.19-1.543 0.658-3.937 1.268-5.041 1.284-0.224 0.003-0.418 0.022-0.43 0.041-0.026 0.042-2.953 0.043-2.979 0.001zM8.715 28.839c-2.009-0.297-3.751-1.205-5.236-2.732-0.809-0.831-1.406-1.693-2.009-2.898-0.788-1.576-1.35-3.608-1.446-5.233-0.033-0.555-0.032-3.638 0.001-4.165 0.067-1.074 0.46-2.651 1.001-4.019 0.207-0.525 0.757-1.668 1.020-2.122 0.080-0.138 0.166-0.287 0.191-0.329 0.53-0.92 1.548-2.211 2.448-3.102 0.815-0.808 1.597-1.439 2.538-2.050 0.288-0.187 0.567-0.369 0.62-0.406 0.197-0.134 1.391-0.739 1.827-0.925 0.967-0.413 2.072-0.775 2.401-0.786 0.108-0.004 0.205-0.022 0.216-0.039s0.111-0.033 0.223-0.033c0.171 0 0.204 0.011 0.208 0.074 0.005 0.060-0.056 0.093-0.331 0.178-1.15 0.356-2.471 0.984-3.744 1.782-0.957 0.6-2.078 1.538-3.006 2.514-2.376 2.501-3.759 5.509-4.179 9.093-0.082 0.699-0.093 2.553-0.019 3.212 0.455 4.043 2.203 7.248 4.795 8.791 0.968 0.576 2.031 0.881 3.218 0.922 0.963 0.034 1.578-0.093 3.32-0.681 1.637-0.554 2.081-0.671 2.798-0.738 0.479-0.045 1.045-0.004 1.601 0.116 0.331 0.072 1.71 0.502 2.46 0.767 1.155 0.409 2.010 0.568 2.889 0.537 1.44-0.051 2.7-0.489 3.845-1.338 2.246-1.664 3.763-4.713 4.167-8.376 0.066-0.596 0.066-2.408 0.001-3.022-0.289-2.708-1.088-5.005-2.473-7.109-1.36-2.065-3.286-3.881-5.424-5.113-0.876-0.505-2.203-1.095-3.054-1.358-0.269-0.083-0.339-0.12-0.339-0.178 0-0.062 0.030-0.073 0.192-0.073 0.105 0 0.2 0.014 0.211 0.032s0.119 0.036 0.24 0.041c0.543 0.022 2.275 0.666 3.454 1.284 3.769 1.976 6.523 5.205 7.912 9.275 0.362 1.060 0.66 2.427 0.673 3.083 0.004 0.203 0.027 0.393 0.051 0.424 0.034 0.044 0.032 0.049-0.009 0.024-0.042-0.025-0.044-0.016-0.008 0.051 0.054 0.1 0.033 2.947-0.028 3.898-0.046 0.713-0.171 1.427-0.414 2.363-0.814 3.133-2.501 5.629-4.79 7.085-0.815 0.519-2.015 1.004-2.95 1.193-0.391 0.079-0.553 0.090-1.393 0.090-1.266 0-1.88-0.104-3.606-0.613-1.815-0.535-2.051-0.584-2.792-0.584s-0.978 0.050-2.792 0.584c-1.665 0.491-2.248 0.594-3.451 0.612-0.501 0.007-0.964 0.006-1.028-0.004zM8.851 25.262c-0.776-0.085-1.405-0.272-2.152-0.641-1.011-0.499-1.863-1.28-2.597-2.383-0.347-0.521-0.652-1.078-0.626-1.145 0.042-0.109 0.189-0.055 0.411 0.15 0.485 0.448 1.595 1.266 1.72 1.266 0.022 0 0.067 0.025 0.101 0.055 0.083 0.074 0.73 0.356 1.089 0.474 0.719 0.236 1.647 0.345 2.424 0.284 0.911-0.072 1.56-0.225 2.579-0.609 1.605-0.606 2.462-0.817 3.657-0.902 0.89-0.063 1.933 0.038 2.877 0.277 0.456 0.116 0.962 0.282 1.726 0.565 0.827 0.307 1.287 0.445 1.827 0.549 1.809 0.347 3.472 0.028 4.959-0.953 0.451-0.297 1.099-0.809 1.336-1.053 0.158-0.164 0.315-0.208 0.356-0.101 0.040 0.104-0.539 1.080-0.989 1.667-0.247 0.323-0.786 0.877-1.11 1.142-0.783 0.64-1.79 1.104-2.831 1.303-0.481 0.092-1.636 0.093-2.171 0.002-0.594-0.101-1.216-0.278-1.919-0.546-1.562-0.594-2.351-0.766-3.509-0.768-0.498-0-0.776 0.020-1.136 0.082-0.86 0.148-1.2 0.25-2.671 0.796-0.536 0.199-1.066 0.341-1.602 0.429-0.445 0.073-1.345 0.105-1.744 0.061z"></path>
            <path fill=""  d="M13.291 18.938l-3.994-9.539c-0.284-0.657-0.567-1.112-0.851-1.365s-0.61-0.403-0.98-0.449v-0.346c0.049 0 0.173-0.006 0.37-0.017 0.185-0.012 0.32-0.017 0.407-0.017 0.431 0 0.875 0.046 1.331 0.138 0.456 0.081 0.888 0.276 1.294 0.588s0.752 0.801 1.035 1.469l2.496 5.962 1.664-4.424-0.647-1.538c-0.284-0.657-0.592-1.112-0.925-1.365-0.32-0.253-0.666-0.403-1.035-0.449v-0.346c0.049 0 0.16-0.006 0.333-0.017s0.302-0.017 0.388-0.017c0.431 0 0.875 0.046 1.331 0.138s0.888 0.294 1.294 0.605c0.407 0.3 0.752 0.783 1.035 1.452l2.644 6.29 3.162-8.312h0.888l-4.382 11.561h-0.74l-2.848-6.774-2.533 6.774h-0.74z"></path>
        </symbol>
    </defs>
</svg>